HIERARCHY
ROOT Hips
{
	OFFSET 0.000000 0.000000 0.000000
	CHANNELS 6 Xposition Yposition Zposition Zrotation Yrotation Xrotation 
	JOINT LHipJoint
	{
		OFFSET 0.000000 0.000000 0.000000
		CHANNELS 3 Zrotation Yrotation Xrotation
		JOINT LeftUpLeg
		{
			OFFSET 1.363060 -1.794630 0.839290
			CHANNELS 3 Zrotation Yrotation Xrotation
			JOINT LeftLeg
			{
				OFFSET 2.448110 -6.726130 0.000000
				CHANNELS 3 Zrotation Yrotation Xrotation
				JOINT LeftFoot
				{
					OFFSET 2.562200 -7.039590 0.000000
					CHANNELS 3 Zrotation Yrotation Xrotation
					JOINT LeftToeBase
					{
						OFFSET 0.157640 -0.433110 2.322550
						CHANNELS 3 Zrotation Yrotation Xrotation
						End Site
						{
							OFFSET 0.000000 0.000000 0.000000
						}
					}
				}
			}
		}
	}
	JOINT RHipJoint
	{
		OFFSET 0.000000 0.000000 0.000000
		CHANNELS 3 Zrotation Yrotation Xrotation
		JOINT RightUpLeg
		{
			OFFSET -1.305520 -1.794630 0.839290
			CHANNELS 3 Zrotation Yrotation Xrotation
			JOINT RightLeg
			{
				OFFSET -2.542530 -6.985550 0.000000
				CHANNELS 3 Zrotation Yrotation Xrotation
				JOINT RightFoot
				{
					OFFSET -2.568260 -7.056230 0.000000
					CHANNELS 3 Zrotation Yrotation Xrotation
					JOINT RightToeBase
					{
						OFFSET -0.164730 -0.452590 2.363150
						CHANNELS 3 Zrotation Yrotation Xrotation
						End Site
						{
							OFFSET 0.000000 0.000000 0.000000
						}
					}
				}
			}
		}
	}
	JOINT LowerBack
	{
		OFFSET 0.000000 0.000000 0.000000
		CHANNELS 3 Zrotation Yrotation Xrotation
		JOINT Spine
		{
			OFFSET 0.028270 2.035590 -0.193380
			CHANNELS 3 Zrotation Yrotation Xrotation
			JOINT Spine1
			{
				OFFSET 0.056720 2.048850 -0.042750
				CHANNELS 3 Zrotation Yrotation Xrotation
				JOINT Neck
				{
					OFFSET 0.000000 0.000000 0.000000
					CHANNELS 3 Zrotation Yrotation Xrotation
					JOINT Neck1
					{
						OFFSET -0.054170 1.746240 0.172020
						CHANNELS 3 Zrotation Yrotation Xrotation
						JOINT Head
						{
							OFFSET 0.104070 1.761360 -0.123970
							CHANNELS 3 Zrotation Yrotation Xrotation
							End Site
							{
								OFFSET 0.000000 0.000000 0.000000
							}
						}
					}
				}
				JOINT LeftShoulder
				{
					OFFSET 0.000000 0.000000 0.000000
					CHANNELS 3 Zrotation Yrotation Xrotation
					JOINT LeftArm
					{
						OFFSET 3.362410 1.200890 -0.311210
						CHANNELS 3 Zrotation Yrotation Xrotation
						JOINT LeftForeArm
						{
							OFFSET 4.983000 -0.000000 -0.000000
							CHANNELS 3 Zrotation Yrotation Xrotation
							JOINT LeftHand
							{
								OFFSET 3.483560 -0.000000 -0.000000
								CHANNELS 3 Zrotation Yrotation Xrotation
								JOINT LeftFingerBase
								{
									OFFSET 0.000000 0.000000 0.000000
									CHANNELS 3 Zrotation Yrotation Xrotation
									JOINT LeftHandIndex1
									{
										OFFSET 0.715260 -0.000000 -0.000000
										CHANNELS 3 Zrotation Yrotation Xrotation
										End Site
										{
											OFFSET 0.000000 0.000000 0.000000
										}
									}
								}
								JOINT LThumb
								{
									OFFSET 0.000000 0.000000 0.000000
									CHANNELS 3 Zrotation Yrotation Xrotation
									End Site
									{
										OFFSET 0.000000 0.000000 0.000000
									}
								}
							}
						}
					}
				}
				JOINT RightShoulder
				{
					OFFSET 0.000000 0.000000 0.000000
					CHANNELS 3 Zrotation Yrotation Xrotation
					JOINT RightArm
					{
						OFFSET -3.136600 1.374050 -0.404650
						CHANNELS 3 Zrotation Yrotation Xrotation
						JOINT RightForeArm
						{
							OFFSET -5.241900 -0.000000 -0.000000
							CHANNELS 3 Zrotation Yrotation Xrotation
							JOINT RightHand
							{
								OFFSET -3.444170 -0.000000 -0.000000
								CHANNELS 3 Zrotation Yrotation Xrotation
								JOINT RightFingerBase
								{
									OFFSET 0.000000 0.000000 0.000000
									CHANNELS 3 Zrotation Yrotation Xrotation
									JOINT RightHandIndex1
									{
										OFFSET -0.622530 -0.000000 -0.000000
										CHANNELS 3 Zrotation Yrotation Xrotation
										End Site
										{
											OFFSET 0.000000 0.000000 0.000000
										}
									}
								}
								JOINT RThumb
								{
									OFFSET 0.000000 0.000000 0.000000
									CHANNELS 3 Zrotation Yrotation Xrotation
									End Site
									{
										OFFSET 0.000000 0.000000 0.000000
									}
								}
							}
						}
					}
				}
			}
		}
	}
}
MOTION
Frames: 12
Frame Time: 0.008333
-12.187952 15.988249 -0.331044 17.867434 87.330496 45.958862 -10.001005 2.364798 4.648504 -13.254756 -3.929209 -29.763695 -2.314491 0.054001 37.719739 3.421449 9.466430 -32.241739 -5.123000 0.000000 -27.505300 11.764653 -2.567690 1.869010 -1.171878 -6.538853 -31.866026 -1.350118 -3.573800 66.208543 -2.078944 -10.564219 0.936594 -1.590500 -0.000001 -34.584200 -1.828028 0.335322 -7.818433 -0.795600 0.287122 -4.255143 -3.820646 0.231904 0.431072 10.874903 -7.920488 -8.850526 -1.263407 -0.066250 -0.485740 0.000000 0.000000 0.000000 -0.960053 9.477869 3.511053 -43.205321 -15.171249 -12.334406 -0.973545 -63.486228 -0.142243 22.841347 5.261591 1.016785 -0.312068 0.300807 0.000000 0.000000 0.000000 0.000000 0.000000 0.000000 0.000000 4.860182 -1.758583 1.641567 33.727153 33.092931 4.547770 179.518486 79.271868 -179.995705 0.357605 6.791350 0.025460 -0.016151 -0.630659 -0.000000 0.000000 0.000000 0.000000 0.000000 0.000000 0.000000 
-11.916327 16.047300 -0.343600 7.286577 87.195916 35.394702 -10.216333 2.482784 4.586267 -12.632826 -3.068800 -27.749944 -2.319650 -0.146803 35.180514 3.180867 9.033264 -30.628027 -4.633500 0.000000 -29.972900 11.588236 -2.340216 1.971971 -0.614179 -6.035648 -34.242619 -1.337042 -3.663517 67.186163 -1.990339 -9.980589 -0.761391 -1.262500 0.000001 -33.939400 -0.894985 0.226467 -7.844090 -0.584292 0.089378 -4.279737 -3.910716 0.036222 0.341112 10.780618 -7.970218 -8.722588 -1.294296 -0.070931 -0.441107 0.000000 0.000000 0.000000 -0.760028 9.205732 3.376062 -43.146506 -15.982264 -11.966638 -0.876313 -65.469033 -0.147567 22.708498 4.799748 0.913031 -0.321607 0.321273 -0.000000 0.000000 0.000000 0.000000 0.000000 0.000000 0.000000 4.726382 -1.862956 1.535344 34.658379 32.023155 3.628876 179.551139 80.042824 179.998983 -0.306407 6.939563 -0.019002 -0.000611 -0.625739 -0.000000 0.000000 0.000000 0.000000 0.000000 0.000000 0.000000 
-11.640401 16.108346 -0.354521 -2.594454 87.140010 25.544606 -10.389494 2.604440 4.538085 -11.948388 -2.307485 -25.773138 -2.289345 -0.337400 32.669147 2.926523 8.620226 -28.739288 -4.113800 -0.000000 -32.741299 11.444788 -2.123867 2.078741 0.037316 -5.605131 -36.564879 -1.288859 -3.755888 67.814510 -1.918609 -9.471220 -2.382906 -0.981500 -0.000001 -33.375600 0.107946 0.078536 -7.878018 -0.357024 -0.153277 -4.304287 -4.004386 -0.201862 0.260471 10.686264 -8.019260 -8.608158 -1.332776 -0.075944 -0.400848 0.000000 0.000000 0.000000 -0.538519 8.952925 3.242182 -43.005566 -16.864820 -11.629429 -0.787514 -67.390776 -0.152625 22.497096 4.302960 0.800189 -0.329993 0.343595 0.000000 0.000000 0.000000 0.000000 0.000000 0.000000 0.000000 4.636681 -2.000107 1.435369 35.507666 30.983012 2.633520 179.587982 80.872525 179.993448 -1.004549 7.153264 -0.068075 0.014665 -0.621656 -0.000000 0.000000 0.000000 0.000000 0.000000 0.000000 0.000000 
-11.360496 16.170752 -0.363321 -11.799784 87.198829 16.385064 -10.541731 2.712768 4.507035 -11.224800 -1.686377 -23.843044 -2.220948 -0.515652 30.231049 2.664761 8.244007 -26.579072 -3.576100 0.000001 -35.753900 11.308250 -1.944234 2.187661 0.751763 -5.261357 -38.825524 -1.204064 -3.859112 68.094072 -1.868597 -9.053828 -3.909934 -0.743700 -0.000001 -32.731900 1.125353 -0.122585 -7.926010 -0.125782 -0.447948 -4.332199 -4.098343 -0.489470 0.181726 10.596455 -8.068142 -8.504681 -1.379310 -0.081369 -0.364307 0.000000 0.000000 0.000000 -0.272486 8.661213 3.111846 -42.794972 -17.756236 -11.330490 -0.705775 -69.263709 -0.157341 22.221482 3.763517 0.678357 -0.337067 0.367762 0.000000 0.000000 0.000000 0.000000 0.000000 0.000000 0.000000 4.598850 -2.173170 1.350030 36.274741 29.953854 1.562271 179.626920 81.757571 179.987854 -1.725129 7.415023 -0.122060 0.029673 -0.617944 0.000000 0.000000 0.000000 0.000000 0.000000 0.000000 0.000000 
-11.076885 16.233972 -0.369494 -20.585218 87.377147 7.663661 -10.700333 2.802657 4.497618 -10.486676 -1.230607 -21.976337 -2.116380 -0.675405 27.898386 2.401348 7.918388 -24.156876 -3.029300 -0.000000 -38.965701 11.148275 -1.813512 2.297507 1.497240 -5.001636 -41.025433 -1.085626 -3.970374 68.035644 -1.841910 -8.727989 -5.322845 -0.543300 -0.000000 -31.864499 2.100947 -0.378263 -7.996076 0.097284 -0.790229 -4.364786 -4.191656 -0.822896 0.107642 10.517577 -8.124713 -8.419043 -1.432947 -0.087019 -0.333555 0.000000 0.000000 0.000000 0.036408 8.341469 2.985503 -42.498813 -18.680020 -11.053571 -0.631894 -71.069008 -0.161793 21.907186 3.180202 0.549335 -0.343004 0.393743 0.000000 0.000000 0.000000 0.000000 0.000000 0.000000 0.000000 4.620605 -2.389126 1.282734 36.959752 28.937726 0.415520 179.667099 82.699480 179.982287 -2.462839 7.699317 -0.181054 0.044424 -0.614029 0.000000 0.000000 0.000000 0.000000 0.000000 0.000000 0.000000 
-10.789828 16.297393 -0.372711 -29.274592 87.655582 -0.937452 -10.888037 2.879517 4.514152 -9.757190 -0.948008 -20.192246 -1.981178 -0.809142 25.689130 2.141932 7.652638 -21.489741 -2.479400 0.000000 -42.321400 10.941670 -1.731154 2.409734 2.245608 -4.808338 -43.170751 -0.939138 -4.079985 67.658684 -1.837207 -8.479184 -6.603083 -0.375100 0.000000 -30.703800 2.988566 -0.678992 -8.097457 0.301981 -1.166768 -4.404836 -4.283522 -1.190062 0.036973 10.453055 -8.192409 -8.353199 -1.492792 -0.092804 -0.309088 0.000000 0.000000 0.000000 0.394331 7.984679 2.862056 -42.115482 -19.616261 -10.797156 -0.565291 -72.809679 -0.166053 21.579276 2.556659 0.415422 -0.347940 0.421360 0.000000 0.000000 0.000000 0.000000 0.000000 0.000000 0.000000 4.703764 -2.645093 1.237792 37.569172 27.931945 -0.804872 179.707831 83.702132 179.976855 -3.212833 7.977275 -0.244555 0.058972 -0.609385 0.000000 0.000000 0.000000 0.000000 0.000000 0.000000 0.000000 
-10.499496 16.360360 -0.372650 -38.153427 87.995930 -9.696297 -11.119545 2.955248 4.558857 -9.056322 -0.826906 -18.509066 -1.823520 -0.910030 23.605864 1.891997 7.449887 -18.601648 -1.930000 -0.000001 -45.747800 10.675491 -1.686750 2.528481 2.976163 -4.651619 -45.271801 -0.771271 -4.175202 66.986177 -1.850502 -8.282069 -7.735339 -0.235700 0.000000 -29.283900 3.759960 -1.007353 -8.237875 0.481240 -1.558436 -4.454643 -4.373837 -1.573146 -0.031371 10.403577 -8.272980 -8.307821 -1.557838 -0.098652 -0.290983 0.000000 0.000000 0.000000 0.805623 7.586489 2.738977 -41.647864 -20.539802 -10.564374 -0.505319 -74.494428 -0.170234 21.262106 1.903106 0.279414 -0.352039 0.450309 0.000000 0.000000 0.000000 0.000000 0.000000 0.000000 0.000000 4.845586 -2.933149 1.218346 38.112310 26.936093 -2.095691 179.748769 84.771513 179.971614 -3.970112 8.220540 -0.311061 0.073331 -0.603570 0.000000 0.000000 0.000000 0.000000 0.000000 0.000000 0.000000 
-10.205864 16.422344 -0.369274 -47.383042 88.346099 -18.764882 -11.399170 3.044887 4.630551 -8.395216 -0.834293 -16.941210 -1.652687 -0.973275 21.633231 1.656543 7.307026 -15.516316 -1.382800 -0.000001 -49.181200 10.348822 -1.663809 2.659924 3.681747 -4.491126 -47.338427 -0.588053 -4.243165 66.037657 -1.876153 -8.106528 -8.712216 -0.123200 0.000000 -27.734500 4.413318 -1.340386 -8.421642 0.632767 -1.943327 -4.513406 -4.464881 -1.951087 -0.090821 10.369319 -8.371929 -8.289435 -1.626846 -0.104375 -0.281100 0.000000 0.000000 0.000000 1.248983 7.191325 2.613927 -41.075549 -21.487517 -10.343666 -0.452892 -76.110982 -0.174519 20.980144 1.238362 0.145309 -0.355664 0.480176 0.000000 0.000000 0.000000 0.000000 0.000000 0.000000 0.000000 5.044327 -3.248507 1.223334 38.592486 25.965784 -3.452275 179.790108 85.913985 179.966607 -4.731059 8.400220 -0.378268 0.087437 -0.596173 0.000000 0.000000 0.000000 0.000000 0.000000 0.000000 0.000000 
-9.908920 16.482680 -0.362644 -56.777371 88.649539 -27.950580 -11.715094 3.163604 4.724009 -7.777254 -0.919132 -15.495750 -1.478140 -0.997419 19.744854 1.440332 7.213201 -12.260925 -0.839900 0.000000 -52.528900 9.976997 -1.644455 2.812601 4.366733 -4.283015 -49.378814 -0.392954 -4.275367 64.828376 -1.907243 -7.918375 -9.540966 -0.035700 0.000000 -26.234700 4.971361 -1.652866 -8.650848 0.759854 -2.299566 -4.582836 -4.556880 -2.302628 -0.146233 10.343567 -8.482867 -8.292056 -1.699188 -0.110044 -0.277570 0.000000 0.000000 0.000000 1.730532 6.780152 2.484019 -40.421648 -22.396771 -10.152013 -0.407098 -77.689114 -0.178983 20.745056 0.582655 0.016202 -0.358874 0.510371 0.000000 0.000000 0.000000 0.000000 0.000000 0.000000 0.000000 5.286265 -3.571512 1.254753 39.021872 25.015133 -4.869037 179.831754 87.134463 179.961896 -5.486610 8.495950 -0.443179 0.101175 -0.587054 -0.000000 0.000000 0.000000 0.000000 0.000000 0.000000 0.000000 
-9.608405 16.540754 -0.353122 -65.812516 88.861225 -36.724045 -12.043776 3.318759 4.828755 -7.191386 -1.014680 -14.172619 -1.307145 -0.986399 17.906431 1.246622 7.147111 -8.857283 -0.304200 -0.000001 -55.716399 9.585605 -1.621906 2.997591 5.051857 -3.985742 -51.395491 -0.183544 -4.271720 63.357966 -1.937068 -7.685803 -10.240867 0.029199 0.000000 -24.986400 5.484967 -1.925036 -8.925091 0.872687 -2.613629 -4.661605 -4.651695 -2.614162 -0.193977 10.319332 -8.603270 -8.316160 -1.774026 -0.115602 -0.280498 0.000000 0.000000 0.000000 2.227481 6.383867 2.348692 -39.681896 -23.281501 -9.987161 -0.369037 -79.230158 -0.183735 20.566283 -0.040473 -0.104110 -0.361970 0.540305 -0.000000 0.000000 0.000000 0.000000 0.000000 0.000000 0.000000 5.559661 -3.891723 1.309657 39.401554 24.093677 -6.339834 179.874035 88.436532 179.957505 -6.227910 8.492878 -0.502493 0.114320 -0.576150 -0.000000 0.000000 0.000000 0.000000 0.000000 0.000000 0.000000 
-9.304051 16.595990 -0.341202 -73.686878 88.958772 -44.283131 -12.360748 3.506591 4.930612 -6.620627 -1.046033 -12.964270 -1.144736 -0.949123 16.083647 1.076530 7.077690 -5.322854 0.217301 0.000000 -58.670100 9.198958 -1.607497 3.228225 5.763250 -3.568466 -53.384669 0.048937 -4.240079 61.610875 -1.959532 -7.380115 -10.838307 0.074000 -0.000001 -24.200100 6.008851 -2.147778 -9.243760 0.983828 -2.882802 -4.749398 -4.749714 -2.882636 -0.234192 10.286959 -8.725801 -8.357517 -1.850912 -0.121101 -0.288594 0.000000 0.000000 0.000000 2.722753 6.009376 2.209094 -38.865192 -24.129798 -9.852383 -0.339451 -80.747945 -0.188804 20.443519 -0.609489 -0.213027 -0.365189 0.569393 -0.000000 0.000000 0.000000 0.000000 0.000000 0.000000 0.000000 5.849068 -4.198317 1.385370 39.732425 23.200563 -7.858879 179.917101 89.820465 179.953461 -6.943830 8.385557 -0.553011 0.126618 -0.563595 0.000000 0.000000 0.000000 0.000000 0.000000 0.000000 0.000000 
-8.995514 16.647766 -0.327516 -79.710129 88.940259 -49.940667 -12.654670 3.715106 5.013773 -6.046638 -0.931416 -11.861112 -0.995298 -0.896057 14.246753 0.928540 6.964453 -1.672138 0.711700 0.000000 -61.323200 8.827534 -1.627717 3.518138 6.525528 -3.010126 -55.332331 0.317642 -4.189061 59.554215 -1.969238 -6.977574 -11.354493 0.100900 0.000000 -24.110700 6.585550 -2.321796 -9.605553 1.104151 -3.112585 -4.845326 -4.850193 -3.113087 -0.264949 10.236709 -8.843683 -8.412751 -1.929401 -0.126576 -0.300844 0.000000 0.000000 0.000000 3.192626 5.673193 2.068098 -37.972971 -24.951565 -9.746332 -0.319342 -82.247309 -0.194166 20.370422 -1.106057 -0.308048 -0.368811 0.597156 -0.000000 0.000000 0.000000 0.000000 0.000000 0.000000 0.000000 6.140187 -4.485956 1.477677 40.010471 22.339418 -9.418519 -0.038929 88.714612 -0.050218 -7.623238 8.178196 -0.592238 0.137809 -0.549662 -0.000000 0.000000 0.000000 0.000000 0.000000 0.000000 0.000000 
